# Blender 3.6.2
# www.blender.org
mtllib SetA_Shelve_Style_05.mtl
o SetA_Shelve_Style_05
v 0.159796 0.154046 0.070803
v 0.159796 0.154046 -0.033484
v -0.138153 0.222418 0.070803
v 0.159796 0.198741 0.070803
v -0.138153 0.222418 -0.033484
v 0.159796 0.198741 -0.033484
v -0.159796 0.131549 0.070803
v -0.153640 0.172313 0.070803
v -0.159329 0.141017 0.070803
v -0.157991 0.152123 0.070803
v -0.155989 0.163129 0.070803
v -0.153640 0.172313 -0.033484
v -0.159796 0.131549 -0.033484
v -0.155989 0.163129 -0.033484
v -0.157991 0.152123 -0.033484
v -0.159329 0.141017 -0.033484
v -0.156233 0.010926 0.070803
v -0.159796 0.014489 0.070803
v -0.158179 0.011313 0.070803
v -0.158916 0.011806 0.070803
v -0.159409 0.012543 0.070803
v 0.159796 0.014489 0.070803
v 0.156233 0.010926 0.070803
v 0.159409 0.012543 0.070803
v 0.158916 0.011806 0.070803
v 0.158179 0.011313 0.070803
v -0.159796 0.014489 -0.033484
v -0.156233 0.010926 -0.033484
v -0.159409 0.012543 -0.033484
v -0.158916 0.011806 -0.033484
v -0.158179 0.011313 -0.033484
v 0.156233 0.010926 -0.033484
v 0.159796 0.014489 -0.033484
v 0.158179 0.011313 -0.033484
v 0.158916 0.011806 -0.033484
v 0.159409 0.012543 -0.033484
v 0.170722 0.154046 0.070803
v 0.170722 0.154046 -0.033484
v -0.148592 0.225645 0.070803
v 0.170722 0.198741 0.070803
v -0.148592 0.225645 -0.033484
v 0.170722 0.198741 -0.033484
v -0.170722 0.131818 0.070803
v -0.164158 0.175282 0.070803
v -0.170223 0.141941 0.070803
v -0.168800 0.153756 0.070803
v -0.166670 0.165464 0.070803
v -0.164158 0.175282 -0.033484
v -0.170722 0.131818 -0.033484
v -0.166670 0.165464 -0.033484
v -0.168800 0.153756 -0.033484
v -0.170223 0.141941 -0.033484
v -0.157310 0.000000 0.070803
v -0.170722 0.013413 0.070803
v -0.162442 0.001021 0.070803
v -0.166794 0.003928 0.070803
v -0.169701 0.008280 0.070803
v 0.170722 0.013413 0.070803
v 0.157310 0.000000 0.070803
v 0.169701 0.008280 0.070803
v 0.166794 0.003928 0.070803
v 0.162442 0.001021 0.070803
v -0.170722 0.013413 -0.033484
v -0.157310 0.000000 -0.033484
v -0.169701 0.008280 -0.033484
v -0.166794 0.003928 -0.033484
v -0.162442 0.001021 -0.033484
v 0.157310 0.000000 -0.033484
v 0.170722 0.013413 -0.033484
v 0.162442 0.001021 -0.033484
v 0.166794 0.003928 -0.033484
v 0.169701 0.008280 -0.033484
v 0.058659 0.201159 0.070803
v 0.058659 0.201159 -0.033484
v 0.052233 0.010812 0.070803
v 0.052233 0.010812 -0.033484
v 0.048345 0.204663 0.070803
v 0.048345 0.204663 -0.033484
v 0.041340 0.010812 0.070803
v 0.041340 0.010812 -0.033484
v 0.053833 0.187628 -0.033484
v 0.052233 0.178375 -0.033484
v 0.053221 0.185548 -0.033484
v 0.052701 0.183059 -0.033484
v 0.052354 0.180540 -0.033484
v 0.052233 0.178375 0.070803
v 0.053833 0.187628 0.070803
v 0.047468 0.183140 0.070803
v 0.052354 0.180540 0.070803
v 0.052701 0.183059 0.070803
v 0.053221 0.185548 0.070803
v 0.041340 0.178375 -0.033484
v 0.042815 0.187671 -0.033484
v 0.041452 0.180543 -0.033484
v 0.041772 0.183071 -0.033484
v 0.042250 0.185574 -0.033484
v 0.042815 0.187671 0.070803
v 0.041340 0.178375 0.070803
v 0.046105 0.183140 0.070803
v 0.042250 0.185574 0.070803
v 0.041772 0.183071 0.070803
v 0.041452 0.180543 0.070803
v -0.159954 0.071174 0.058187
v -0.159954 0.081611 0.058187
v -0.159954 0.071174 -0.033236
v -0.159954 0.081611 -0.033236
v -0.009964 0.071174 0.058187
v -0.009964 0.081611 0.058187
v -0.009964 0.071174 -0.033236
v -0.009964 0.081611 -0.033236
v -0.159409 0.143798 0.058187
v -0.159409 0.154235 0.058187
v -0.159409 0.143798 -0.033236
v -0.159409 0.154235 -0.033236
v -0.020222 0.143798 0.058187
v -0.020222 0.154235 0.058187
v -0.020222 0.143798 -0.033236
v -0.020222 0.154235 -0.033236
v 0.051511 0.147172 0.058187
v 0.051511 0.162892 0.058187
v 0.051511 0.147172 -0.033236
v 0.051511 0.162892 -0.033236
v 0.160013 0.147172 0.058187
v 0.160013 0.162892 0.058187
v 0.160013 0.147172 -0.033236
v 0.160013 0.162892 -0.033236
v -0.124158 0.266523 0.058187
v -0.124158 0.274298 0.058187
v -0.124158 0.266523 -0.033236
v -0.124158 0.274298 -0.033236
v 0.162766 0.266523 0.058187
v 0.162766 0.274298 0.058187
v 0.162766 0.266523 -0.033236
v 0.162766 0.274298 -0.033236
v -0.037019 0.153390 0.047439
v -0.041805 0.151749 0.047439
v -0.037019 0.153390 -0.034743
v -0.041805 0.151749 -0.034743
v -0.076953 0.269921 0.047439
v -0.081740 0.268281 0.047439
v -0.076953 0.269921 -0.034743
v -0.081740 0.268281 -0.034743
v -0.164737 0.006625 -0.032446
v 0.165342 0.006625 -0.032446
v 0.000304 0.006625 -0.032446
v -0.164737 0.006625 -0.044659
v 0.165342 0.006625 -0.044659
v 0.000304 0.006625 -0.044659
v 0.165342 0.257082 -0.032446
v 0.126262 0.294171 -0.032446
v 0.164010 0.267141 -0.032446
v 0.160106 0.276375 -0.032446
v 0.153896 0.284155 -0.032446
v 0.145802 0.289950 -0.032446
v 0.136377 0.293367 -0.032446
v 0.126262 0.294171 -0.044659
v 0.165342 0.257082 -0.044659
v 0.136377 0.293367 -0.044659
v 0.145802 0.289950 -0.044659
v 0.153896 0.284155 -0.044659
v 0.160106 0.276375 -0.044659
v 0.164010 0.267141 -0.044659
v 0.058137 0.290608 -0.032446
v -0.057604 0.287025 -0.032446
v 0.000304 0.229672 -0.032446
v 0.041195 0.289806 -0.032446
v 0.021462 0.289021 -0.032446
v 0.000282 0.288305 -0.032446
v -0.020902 0.287709 -0.032446
v -0.040646 0.287272 -0.032446
v -0.057604 0.287025 -0.044659
v 0.058137 0.290608 -0.044659
v -0.040646 0.287272 -0.044659
v -0.020902 0.287709 -0.044659
v 0.000282 0.288305 -0.044659
v 0.021462 0.289021 -0.044659
v 0.041195 0.289806 -0.044659
v -0.095457 0.286660 -0.032446
v -0.164737 0.216710 -0.032446
v -0.113388 0.284127 -0.032446
v -0.130097 0.277044 -0.032446
v -0.144445 0.265896 -0.032446
v -0.155455 0.251441 -0.032446
v -0.162376 0.234664 -0.032446
v -0.164737 0.216710 -0.044659
v -0.095457 0.286660 -0.044659
v -0.162376 0.234664 -0.044659
v -0.155455 0.251441 -0.044659
v -0.144445 0.265896 -0.044659
v -0.130097 0.277044 -0.044659
v -0.113388 0.284127 -0.044659
vn -0.9952 0.0980 -0.0000
vn -1.0000 -0.0000 -0.0000
vn 0.0980 0.9952 -0.0000
vn -0.0980 0.9952 -0.0000
vn 0.9624 -0.2717 -0.0000
vn 0.9769 -0.2135 -0.0000
vn 0.9888 -0.1493 -0.0000
vn 0.9964 -0.0845 -0.0000
vn 0.9997 -0.0247 -0.0000
vn 0.9554 -0.2953 -0.0000
vn 0.9952 0.0980 -0.0000
vn 0.9239 0.3827 -0.0000
vn 0.7071 0.7071 -0.0000
vn 0.3827 0.9239 -0.0000
vn -0.9239 0.3827 -0.0000
vn -0.7071 0.7071 -0.0000
vn -0.3827 0.9239 -0.0000
vn 0.9952 -0.0980 -0.0000
vn 1.0000 -0.0000 -0.0000
vn -0.0980 -0.9952 -0.0000
vn 0.0980 -0.9952 -0.0000
vn -0.9624 0.2717 -0.0000
vn -0.9769 0.2135 -0.0000
vn -0.9888 0.1493 -0.0000
vn -0.9964 0.0845 -0.0000
vn -0.9997 0.0247 -0.0000
vn -0.9554 0.2953 -0.0000
vn -0.9952 -0.0980 -0.0000
vn -0.9239 -0.3827 -0.0000
vn -0.7071 -0.7071 -0.0000
vn -0.3827 -0.9239 -0.0000
vn 0.9239 -0.3827 -0.0000
vn 0.7071 -0.7071 -0.0000
vn 0.3827 -0.9239 -0.0000
vn 0.2953 0.9554 -0.0000
vn -0.0000 1.0000 -0.0000
vn -0.0000 -0.0000 1.0000
vn 0.3217 0.9469 -0.0000
vn -0.9509 0.3095 -0.0000
vn -0.9586 0.2848 -0.0000
vn 0.9996 -0.0281 -0.0000
vn -0.9997 0.0259 -0.0000
vn 0.9510 -0.3093 -0.0000
vn 0.9419 -0.3359 -0.0000
vn -0.9961 0.0886 -0.0000
vn -0.9876 0.1567 -0.0000
vn -0.9746 0.2240 -0.0000
vn 0.9699 -0.2436 -0.0000
vn 0.9854 -0.1705 -0.0000
vn 0.9953 -0.0964 -0.0000
vn -0.0000 -0.0000 -1.0000
vn -0.0000 -1.0000 -0.0000
vn 0.3242 -0.9460 -0.0000
vn -0.3242 0.9460 -0.0000
vn 0.9460 0.3242 -0.0000
vn -0.9460 -0.3242 -0.0000
vn -0.0096 1.0000 -0.0000
vn -0.0522 0.9986 -0.0000
vn 0.9914 0.1312 -0.0000
vn 0.9211 0.3894 -0.0000
vn 0.7815 0.6239 -0.0000
vn 0.5822 0.8130 -0.0000
vn 0.3408 0.9401 -0.0000
vn 0.0793 0.9969 -0.0000
vn -0.0473 0.9989 -0.0000
vn -0.0398 0.9992 -0.0000
vn -0.0337 0.9994 -0.0000
vn -0.0281 0.9996 -0.0000
vn -0.0221 0.9998 -0.0000
vn -0.0146 0.9999 -0.0000
vn -0.1399 0.9902 -0.0000
vn -0.3903 0.9207 -0.0000
vn -0.6136 0.7897 -0.0000
vn -0.7955 0.6059 -0.0000
vn -0.9244 0.3814 -0.0000
vn -0.9915 0.1304 -0.0000
vt 0.124142 0.001503
vt 0.124142 0.355413
vt 0.031252 0.355413
vt 0.031252 0.001503
vt 0.001503 0.355413
vt 0.001503 0.001503
vt 0.335942 0.355413
vt 0.127963 0.355413
vt 0.127963 0.001503
vt 0.335942 0.001503
vt 0.445189 0.001503
vt 0.445189 0.355413
vt 0.438879 0.355413
vt 0.438879 0.001503
vt 0.431434 0.355413
vt 0.431434 0.001503
vt 0.423988 0.355413
vt 0.423988 0.001503
vt 0.417678 0.355413
vt 0.417678 0.001503
vt 0.480096 0.001503
vt 0.480096 0.355413
vt 0.339763 0.001503
vt 0.339763 0.355413
vt 0.338442 0.355413
vt 0.338442 0.001503
vt 0.337852 0.355413
vt 0.337852 0.001503
vt 0.337262 0.355413
vt 0.337262 0.001503
vt 0.125462 0.001503
vt 0.125462 0.355413
vt 0.126052 0.001503
vt 0.126052 0.355413
vt 0.126643 0.001503
vt 0.126643 0.355413
vt 0.867877 0.001503
vt 0.961483 0.001503
vt 0.961482 0.355413
vt 0.867877 0.355413
vt 0.991232 0.001503
vt 0.991232 0.355413
vt 0.644532 0.355413
vt 0.644532 0.001503
vt 0.853943 0.001503
vt 0.853943 0.355413
vt 0.522455 0.001503
vt 0.529201 0.001503
vt 0.529201 0.355413
vt 0.522455 0.355413
vt 0.537121 0.001503
vt 0.537121 0.355413
vt 0.545042 0.001503
vt 0.545042 0.355413
vt 0.551788 0.001503
vt 0.551788 0.355413
vt 0.487369 0.355413
vt 0.487369 0.001503
vt 0.630599 0.001503
vt 0.634082 0.001503
vt 0.634082 0.355413
vt 0.630599 0.355413
vt 0.637566 0.001503
vt 0.637565 0.355413
vt 0.641049 0.001503
vt 0.641049 0.355413
vt 0.864393 0.355413
vt 0.864393 0.001503
vt 0.860910 0.355413
vt 0.860910 0.001503
vt 0.857427 0.355413
vt 0.857427 0.001503
vt 0.998504 0.001503
vt 0.998504 0.355413
vt 0.494700 0.873781
vt 0.494700 0.844032
vt 0.501973 0.844032
vt 0.501973 0.873781
vt 0.284513 0.850078
vt 0.286077 0.856191
vt 0.279076 0.858167
vt 0.277404 0.851632
vt 0.283181 0.842752
vt 0.275986 0.843839
vt 0.282290 0.835360
vt 0.275039 0.835975
vt 0.281979 0.829058
vt 0.274707 0.829237
vt 0.296385 0.889541
vt 0.289437 0.891689
vt 0.282237 0.749848
vt 0.281979 0.751143
vt 0.274707 0.750426
vt 0.275386 0.747010
vt 0.282565 0.749357
vt 0.277321 0.744114
vt 0.283055 0.749029
vt 0.280218 0.742178
vt 0.284350 0.748771
vt 0.283634 0.741499
vt 0.494700 0.751143
vt 0.494443 0.749848
vt 0.501293 0.747010
vt 0.501973 0.750426
vt 0.494115 0.749357
vt 0.499358 0.744114
vt 0.493624 0.749029
vt 0.496462 0.742178
vt 0.492329 0.748771
vt 0.493045 0.741499
vt 0.001495 0.486862
vt 0.355405 0.486862
vt 0.355405 0.494112
vt 0.001495 0.494112
vt 0.355405 0.506006
vt 0.001495 0.506006
vt 0.947792 0.359812
vt 0.943734 0.471269
vt 0.940449 0.474323
vt 0.939543 0.474290
vt 0.936489 0.471005
vt 0.940546 0.359548
vt 0.355405 0.359499
vt 0.355405 0.471029
vt 0.001495 0.471029
vt 0.001495 0.359498
vt 0.944575 0.477462
vt 0.947457 0.486579
vt 0.940512 0.488660
vt 0.937245 0.477224
vt 0.001495 0.512289
vt 0.355405 0.512289
vt 0.355405 0.623819
vt 0.001495 0.623819
vt 0.355405 0.477300
vt 0.001495 0.477300
vt 0.943763 0.472712
vt 0.943933 0.474395
vt 0.944218 0.476064
vt 0.936920 0.475816
vt 0.936662 0.474139
vt 0.936511 0.472450
vt 0.001495 0.510844
vt 0.355405 0.510844
vt 0.001495 0.509148
vt 0.355405 0.509148
vt 0.001495 0.507452
vt 0.355405 0.507452
vt 0.001495 0.475857
vt 0.355405 0.475857
vt 0.001495 0.474164
vt 0.355405 0.474165
vt 0.001495 0.472472
vt 0.355405 0.472472
vt 0.780067 0.533444
vt 0.780067 0.544760
vt 0.680939 0.544760
vt 0.680939 0.533444
vt 0.680939 0.533444
vt 0.669623 0.533444
vt 0.669623 0.370815
vt 0.680939 0.370815
vt 0.680939 0.359499
vt 0.780067 0.359499
vt 0.780067 0.370815
vt 0.791383 0.370815
vt 0.791383 0.533444
vt 0.680939 0.707389
vt 0.780067 0.544760
vt 0.780067 0.707389
vt 0.904820 0.521731
vt 0.904820 0.533047
vt 0.805693 0.533047
vt 0.805693 0.521731
vt 0.794377 0.521731
vt 0.794377 0.370816
vt 0.805693 0.370816
vt 0.805693 0.370816
vt 0.805693 0.359499
vt 0.904820 0.359499
vt 0.904820 0.370816
vt 0.904820 0.370816
vt 0.916137 0.370816
vt 0.916137 0.521731
vt 0.805693 0.683963
vt 0.904820 0.533047
vt 0.904820 0.683963
vt 0.136604 0.758600
vt 0.153701 0.758600
vt 0.153701 0.858030
vt 0.136604 0.858030
vt 0.136604 0.875127
vt 0.018599 0.875127
vt 0.018599 0.858030
vt 0.018599 0.858030
vt 0.001502 0.858030
vt 0.001502 0.758600
vt 0.018599 0.758600
vt 0.018599 0.741503
vt 0.136604 0.741503
vt 0.271706 0.858030
vt 0.153701 0.758600
vt 0.271706 0.758600
vt 0.358409 0.729061
vt 0.349978 0.729061
vt 0.349978 0.629934
vt 0.358409 0.629934
vt 0.358409 0.621504
vt 0.669510 0.621504
vt 0.669510 0.629934
vt 0.669511 0.629935
vt 0.677941 0.629935
vt 0.677941 0.729061
vt 0.669511 0.729061
vt 0.669511 0.737491
vt 0.358409 0.737491
vt 0.358409 0.729061
vt 0.669511 0.629934
vt 0.669510 0.729061
vt 0.038877 0.629934
vt 0.349978 0.629934
vt 0.038876 0.729061
vt 0.504972 0.746987
vt 0.510458 0.746987
vt 0.510458 0.836095
vt 0.504972 0.836095
vt 0.510458 0.841581
vt 0.644023 0.836095
vt 0.644023 0.841581
vt 0.649509 0.836095
vt 0.644023 0.746987
vt 0.649509 0.746987
vt 0.644023 0.741500
vt 0.510458 0.741500
vt 0.783074 0.836095
vt 0.649509 0.746987
vt 0.783074 0.746987
vt 0.506947 0.618292
vt 0.358415 0.618292
vt 0.358415 0.392883
vt 0.359613 0.383830
vt 0.363127 0.375519
vt 0.368716 0.368517
vt 0.376000 0.363302
vt 0.384483 0.360227
vt 0.393586 0.359503
vt 0.454898 0.362710
vt 0.506947 0.417552
vt 0.628037 0.909870
vt 0.583505 0.909870
vt 0.583505 0.895503
vt 0.628037 0.895503
vt 0.933506 0.359495
vt 0.933505 0.553646
vt 0.919138 0.553646
vt 0.919139 0.359495
vt 0.447275 0.909869
vt 0.367022 0.909869
vt 0.367022 0.895502
vt 0.447275 0.895502
vt 0.933504 0.747801
vt 0.919136 0.747801
vt 0.296140 0.909869
vt 0.296140 0.895501
vt 0.308077 0.895501
vt 0.308077 0.909869
vt 0.319870 0.895501
vt 0.319870 0.909869
vt 0.331581 0.895501
vt 0.331581 0.909869
vt 0.343292 0.895501
vt 0.343292 0.909869
vt 0.355085 0.895501
vt 0.355085 0.909869
vt 0.001501 0.909867
vt 0.001502 0.895499
vt 0.470146 0.363432
vt 0.487905 0.364138
vt 0.506968 0.364782
vt 0.526033 0.365319
vt 0.543802 0.365712
vt 0.559065 0.365934
vt 0.467227 0.895502
vt 0.467227 0.909869
vt 0.490459 0.895502
vt 0.490459 0.909869
vt 0.515390 0.895502
vt 0.515390 0.909870
vt 0.540321 0.895502
vt 0.540321 0.909870
vt 0.563553 0.895503
vt 0.563553 0.909870
vt 0.655483 0.618292
vt 0.593132 0.366263
vt 0.609269 0.368543
vt 0.624307 0.374917
vt 0.637221 0.384951
vt 0.647130 0.397960
vt 0.653359 0.413059
vt 0.655483 0.429218
vt 0.649341 0.895503
vt 0.649341 0.909870
vt 0.670690 0.895503
vt 0.670690 0.909870
vt 0.692066 0.895503
vt 0.692066 0.909870
vt 0.713442 0.895504
vt 0.713442 0.909871
vt 0.734791 0.895504
vt 0.734791 0.909871
vt 0.756095 0.895504
vt 0.756095 0.909871
vt 0.933502 0.994945
vt 0.919135 0.994945
s 1
usemtl SetA_Shelve_Style_05
f 33/1/1 22/2/1 1/3/2 2/4/2
f 2/4/2 1/3/2 4/5/2 6/6/2
f 17/7/3 23/8/4 32/9/4 28/10/3
f 12/11/5 8/12/5 11/13/6 14/14/6
f 14/14/6 11/13/6 10/15/7 15/16/7
f 15/16/7 10/15/7 9/17/8 16/18/8
f 16/18/8 9/17/8 7/19/9 13/20/9
f 8/12/5 12/11/5 5/21/10 3/22/10
f 27/23/11 18/24/11 21/25/12 29/26/12
f 29/26/12 21/25/12 20/27/13 30/28/13
f 30/28/13 20/27/13 19/29/14 31/30/14
f 31/30/14 19/29/14 17/7/3 28/10/3
f 22/2/1 33/1/1 36/31/15 24/32/15
f 24/32/15 36/31/15 35/33/16 25/34/16
f 25/34/16 35/33/16 34/35/17 26/36/17
f 26/36/17 34/35/17 32/9/4 23/8/4
f 18/24/11 27/23/11 13/20/9 7/19/9
f 69/37/18 38/38/19 37/39/19 58/40/18
f 38/38/19 42/41/19 40/42/19 37/39/19
f 53/43/20 64/44/20 68/45/21 59/46/21
f 48/47/22 50/48/23 47/49/23 44/50/22
f 50/48/23 51/51/24 46/52/24 47/49/23
f 51/51/24 52/53/25 45/54/25 46/52/24
f 52/53/25 49/55/26 43/56/26 45/54/25
f 44/50/22 39/57/27 41/58/27 48/47/22
f 63/59/28 65/60/29 57/61/29 54/62/28
f 65/60/29 66/63/30 56/64/30 57/61/29
f 66/63/30 67/65/31 55/66/31 56/64/30
f 67/65/31 64/44/20 53/43/20 55/66/31
f 58/40/18 60/67/32 72/68/32 69/37/18
f 60/67/32 61/69/33 71/70/33 72/68/32
f 61/69/33 62/71/34 70/72/34 71/70/33
f 62/71/34 59/46/21 68/45/21 70/72/34
f 54/62/28 43/56/26 49/55/26 63/59/28
f 3/22/35 5/21/35 41/58/35 39/57/35
f 6/73/36 4/74/36 40/42/36 42/41/36
f 4/75/37 1/76/37 37/77/37 40/78/37
f 11/79/37 8/80/37 44/81/37 47/82/37
f 10/83/37 11/79/37 47/82/37 46/84/37
f 9/85/37 10/83/37 46/84/37 45/86/37
f 7/87/37 9/85/37 45/86/37 43/88/37
f 8/80/37 3/89/37 39/90/37 44/81/37
f 21/91/37 18/92/37 54/93/37 57/94/37
f 20/95/37 21/91/37 57/94/37 56/96/37
f 19/97/37 20/95/37 56/96/37 55/98/37
f 17/99/37 19/97/37 55/98/37 53/100/37
f 22/101/37 24/102/37 60/103/37 58/104/37
f 24/102/37 25/105/37 61/106/37 60/103/37
f 25/105/37 26/107/37 62/108/37 61/106/37
f 26/107/37 23/109/37 59/110/37 62/108/37
f 18/92/37 7/87/37 43/88/37 54/93/37
f 23/109/37 17/99/37 53/100/37 59/110/37
f 1/76/37 22/101/37 58/104/37 37/77/37
f 73/111/38 74/112/38 78/113/38 77/114/38
f 77/114/39 78/113/39 93/115/40 97/116/40
f 75/117/37 86/118/37 88/119/37 99/120/37 98/121/37 79/122/37
f 76/123/19 82/124/41 86/125/41 75/126/19
f 88/119/37 87/127/37 73/128/37 77/129/37 97/130/37 99/120/37
f 98/131/42 92/132/42 80/133/2 79/134/2
f 81/135/43 74/112/44 73/111/44 87/136/43
f 86/118/37 89/137/37 88/119/37
f 89/137/37 90/138/37 88/119/37
f 90/138/37 91/139/37 88/119/37
f 91/139/37 87/127/37 88/119/37
f 97/130/37 100/140/37 99/120/37
f 100/140/37 101/141/37 99/120/37
f 101/141/37 102/142/37 99/120/37
f 102/142/37 98/121/37 99/120/37
f 92/132/42 98/131/42 102/143/45 94/144/45
f 94/144/45 102/143/45 101/145/46 95/146/46
f 95/146/46 101/145/46 100/147/47 96/148/47
f 96/148/47 100/147/47 97/116/40 93/115/40
f 81/135/43 87/136/43 91/149/48 83/150/48
f 83/150/48 91/149/48 90/151/49 84/152/49
f 84/152/49 90/151/49 89/153/50 85/154/50
f 85/154/50 89/153/50 86/125/41 82/124/41
s 0
f 103/155/2 104/156/2 106/157/2 105/158/2
f 105/159/51 106/160/51 110/161/51 109/162/51
f 109/162/19 110/163/19 108/164/19 107/165/19
f 107/165/37 108/166/37 104/167/37 103/155/37
f 105/158/52 109/162/52 107/165/52 103/155/52
f 110/168/36 106/157/36 104/169/36 108/170/36
f 111/171/2 112/172/2 114/173/2 113/174/2
f 113/174/51 114/175/51 118/176/51 117/177/51
f 117/178/19 118/179/19 116/180/19 115/181/19
f 115/182/37 116/183/37 112/184/37 111/171/37
f 113/174/52 117/178/52 115/182/52 111/171/52
f 118/185/36 114/173/36 112/186/36 116/187/36
f 119/188/2 120/189/2 122/190/2 121/191/2
f 121/191/51 122/192/51 126/193/51 125/194/51
f 125/195/19 126/196/19 124/197/19 123/198/19
f 123/198/37 124/199/37 120/200/37 119/188/37
f 121/191/52 125/194/52 123/198/52 119/188/52
f 126/201/36 122/190/36 120/202/36 124/203/36
f 127/204/2 128/205/2 130/206/2 129/207/2
f 129/207/51 130/208/51 134/209/51 133/210/51
f 133/211/19 134/212/19 132/213/19 131/214/19
f 131/214/37 132/215/37 128/216/37 127/217/37
f 129/207/52 133/218/52 131/219/52 127/217/52
f 134/220/36 130/221/36 128/205/36 132/222/36
f 135/223/53 136/224/53 138/225/53 137/226/53
f 137/227/51 138/225/51 142/228/51 141/229/51
f 141/230/54 142/228/54 140/231/54 139/232/54
f 139/233/37 140/231/37 136/224/37 135/234/37
f 137/235/55 141/230/55 139/236/55 135/237/55
f 142/228/56 138/225/56 136/224/56 140/231/56
f 145/238/37 144/239/37 149/240/37 151/241/37 152/242/37 153/243/37 154/244/37 155/245/37 150/246/37 163/247/37 165/248/37
f 178/249/57 164/250/57 171/251/57 186/252/57
f 144/253/52 145/254/52 148/255/52 147/256/52
f 163/257/58 150/258/58 156/259/58 172/260/58
f 145/254/52 143/261/52 146/262/52 148/255/52
f 149/263/59 157/264/59 162/265/59 151/266/59
f 151/266/60 162/265/60 161/267/60 152/268/60
f 152/268/61 161/267/61 160/269/61 153/270/61
f 153/270/62 160/269/62 159/271/62 154/272/62
f 154/272/63 159/271/63 158/273/63 155/274/63
f 155/274/64 158/273/64 156/259/64 150/258/64
f 149/263/19 144/275/19 147/276/19 157/264/19
f 163/247/37 166/277/37 165/248/37
f 166/277/37 167/278/37 165/248/37
f 167/278/37 168/279/37 165/248/37
f 168/279/37 169/280/37 165/248/37
f 169/280/37 170/281/37 165/248/37
f 170/281/37 164/282/37 165/248/37
f 163/257/65 172/260/65 177/283/65 166/284/65
f 166/284/66 177/283/66 176/285/66 167/286/66
f 167/286/67 176/285/67 175/287/67 168/288/67
f 168/288/68 175/287/68 174/289/68 169/290/68
f 169/290/69 174/289/69 173/291/69 170/292/69
f 170/292/70 173/291/70 171/251/70 164/250/70
f 143/293/37 145/238/37 165/248/37 164/282/37 178/294/37 180/295/37 181/296/37 182/297/37 183/298/37 184/299/37 179/300/37
f 178/249/71 186/252/71 191/301/71 180/302/71
f 180/302/72 191/301/72 190/303/72 181/304/72
f 181/304/73 190/303/73 189/305/73 182/306/73
f 182/306/74 189/305/74 188/307/74 183/308/74
f 183/308/75 188/307/75 187/309/75 184/310/75
f 184/310/76 187/309/76 185/311/76 179/312/76
f 143/261/2 179/313/2 185/314/2 146/262/2
