# Blender 3.6.2
# www.blender.org
mtllib SetA_Book_Style_01.mtl
o SetA_Book_Style_01
v -0.005013 -0.092692 0.068323
v 0.009337 -0.092357 0.068323
v 0.009337 -0.092357 -0.059065
v -0.005013 -0.092692 -0.059065
v 0.001743 -0.092534 -0.065058
v -0.004570 -0.092682 -0.060958
v -0.003317 -0.092652 -0.062928
v -0.001140 -0.092601 -0.064455
v 0.002581 -0.092514 -0.065058
v 0.005464 -0.092447 -0.064455
v 0.007641 -0.092396 -0.062928
v 0.008894 -0.092367 -0.060958
v -0.007228 -0.092744 0.068323
v 0.011552 -0.092305 0.068323
v 0.001587 -0.092538 -0.068323
v -0.001786 -0.092617 -0.067619
v -0.004646 -0.092683 -0.065612
v -0.006557 -0.092728 -0.062608
v -0.007228 -0.092744 -0.059065
v 0.011552 -0.092305 -0.059065
v 0.010881 -0.092321 -0.062608
v 0.008970 -0.092365 -0.065612
v 0.006111 -0.092432 -0.067619
v 0.002737 -0.092511 -0.068323
v -0.005088 -0.089499 0.066022
v 0.009263 -0.089164 0.066022
v 0.009263 -0.089164 -0.059251
v 0.001668 -0.089341 -0.065037
v -0.001215 -0.089409 -0.064455
v -0.003391 -0.089460 -0.062981
v -0.004645 -0.089489 -0.061079
v -0.005088 -0.089499 -0.059251
v 0.008820 -0.089174 -0.061079
v 0.007566 -0.089203 -0.062981
v 0.005390 -0.089254 -0.064455
v 0.002506 -0.089322 -0.065037
v -0.011223 0.173055 0.068323
v 0.003128 0.173391 0.068323
v 0.003128 0.173391 -0.059065
v -0.011223 0.173055 -0.059065
v -0.004467 0.173213 -0.065058
v -0.010780 0.173066 -0.060958
v -0.009527 0.173095 -0.062928
v -0.007350 0.173146 -0.064455
v -0.003629 0.173233 -0.065058
v -0.000745 0.173300 -0.064455
v 0.001431 0.173351 -0.062928
v 0.002684 0.173380 -0.060958
v -0.013438 0.173004 0.068323
v 0.005342 0.173442 0.068323
v -0.004623 0.173210 -0.068323
v -0.007996 0.173131 -0.067619
v -0.010856 0.173064 -0.065612
v -0.012767 0.173019 -0.062608
v -0.013438 0.173004 -0.059065
v 0.005342 0.173442 -0.059065
v 0.004671 0.173427 -0.062608
v 0.002760 0.173382 -0.065612
v -0.000099 0.173315 -0.067619
v -0.003473 0.173237 -0.068323
v -0.011149 0.169863 0.066022
v 0.003202 0.170198 0.066022
v 0.003202 0.170198 -0.059251
v -0.004392 0.170021 -0.065037
v -0.007276 0.169953 -0.064455
v -0.009452 0.169902 -0.062981
v -0.010705 0.169873 -0.061079
v -0.011149 0.169863 -0.059251
v 0.002759 0.170188 -0.061079
v 0.001506 0.170158 -0.062981
v -0.000671 0.170107 -0.064455
v -0.003554 0.170040 -0.065037
v -0.003689 -0.089173 -0.059743
v 0.007849 -0.088860 -0.059743
v -0.001053 -0.088613 -0.060363
v 0.002077 -0.088890 -0.060581
v 0.005193 -0.088561 -0.060363
v 0.001801 0.169947 -0.059743
v -0.009731 0.169426 -0.059743
v -0.000852 0.170146 -0.060363
v -0.003973 0.170030 -0.060581
v -0.007090 0.169722 -0.060363
v 0.007901 -0.088859 0.065173
v -0.003741 -0.089174 0.065245
v 0.005222 -0.088560 0.065270
v 0.002077 -0.088890 0.065059
v -0.001082 -0.088614 0.065395
v -0.009784 0.169425 0.065245
v 0.001853 0.169948 0.065173
v -0.007118 0.169722 0.065395
v -0.003973 0.170030 0.065059
v -0.000824 0.170146 0.065270
vn 0.9997 0.0234 -0.0000
vn 0.9997 0.0235 0.0035
vn 0.9912 0.0232 0.1306
vn 0.9123 0.0346 0.4080
vn 0.9100 0.0214 0.4140
vn -0.1539 -0.0036 -0.9881
vn 0.1539 0.0036 -0.9881
vn -0.3987 -0.0093 -0.9170
vn -0.7239 -0.0169 -0.6897
vn -0.9300 -0.0217 -0.3670
vn -0.9300 -0.0217 -0.3669
vn -0.9997 -0.0234 -0.0051
vn -0.9997 -0.0233 -0.0051
vn 0.9300 0.0217 -0.3669
vn 0.9997 0.0234 -0.0051
vn 0.7240 0.0169 -0.6896
vn 0.3987 0.0093 -0.9170
vn 0.3988 0.0093 -0.9170
vn 0.0234 -0.9997 -0.0000
vn -0.9997 -0.0234 -0.0000
vn 0.2645 0.0062 -0.9644
vn 0.3305 0.0077 -0.9438
vn -0.9129 -0.0083 0.4080
vn -0.9997 -0.0232 0.0035
vn -0.9912 -0.0231 0.1306
vn -0.9100 -0.0211 0.4140
vn -0.7078 -0.0058 0.7064
vn -0.7014 -0.0163 0.7126
vn -0.3821 -0.0074 0.9241
vn -0.3764 -0.0088 0.9264
vn 0.3820 0.0105 0.9241
vn 0.1571 -0.0003 0.9876
vn 0.1544 0.0036 0.9880
vn 0.3764 0.0088 0.9264
vn -0.1569 -0.0076 0.9876
vn -0.1544 -0.0037 0.9880
vn 0.7073 0.0272 0.7064
vn 0.7014 0.0165 0.7126
vn -0.0000 -0.0000 1.0000
vn 0.9912 0.0231 0.1306
vn 0.9997 0.0232 0.0035
vn 0.9100 0.0211 0.4140
vn 0.9129 0.0083 0.4080
vn -0.0234 0.9997 -0.0000
vn -0.9123 -0.0346 0.4080
vn -0.9100 -0.0214 0.4140
vn -0.9912 -0.0232 0.1306
vn -0.9997 -0.0235 0.0035
vn -0.7073 -0.0272 0.7064
vn -0.7014 -0.0165 0.7126
vn -0.3820 -0.0105 0.9241
vn 0.3821 0.0074 0.9241
vn 0.1544 0.0037 0.9880
vn 0.1569 0.0076 0.9876
vn -0.1571 0.0003 0.9876
vn -0.1544 -0.0036 0.9880
vn 0.7078 0.0058 0.7064
vn 0.7014 0.0163 0.7126
vn -0.1472 -0.9891 -0.0000
vn -0.2143 -0.9768 -0.0000
vn 0.0142 0.9999 -0.0000
vn -0.0128 0.9999 -0.0000
vn -0.3305 -0.0077 -0.9438
vn -0.2645 -0.0062 -0.9644
vn -0.2646 -0.0062 -0.9644
vn 0.0054 -1.0000 -0.0000
vn 0.0086 -1.0000 -0.0000
vn 0.0083 -1.0000 -0.0000
vn 0.0488 -0.9988 -0.0000
vn -0.1040 0.9946 -0.0000
vn -0.0674 0.9977 -0.0000
vn -0.0675 0.9977 -0.0000
vn -0.1042 0.9946 -0.0000
vn 0.1435 0.0034 -0.9896
vn 0.0001 -0.0000 -1.0000
vn -0.0000 -0.0000 -1.0000
vn -0.1435 -0.0034 -0.9896
vn -0.1436 -0.0034 -0.9896
vn 0.4974 0.0116 0.8675
vn -0.1791 0.9838 -0.0000
vn 0.2151 -0.9766 0.0001
vn 0.2150 -0.9766 0.0001
vn 0.0346 0.9994 -0.0000
vn -0.0559 -0.0013 0.9984
vn 0.0321 0.0008 0.9995
vn 0.0320 0.0007 0.9995
vn 0.0199 0.0005 0.9998
vn -0.0197 -0.0005 0.9998
vn 0.0362 0.0008 0.9993
vn -0.5311 -0.0124 0.8472
vn 0.2307 -0.9730 -0.0000
vn 0.2999 0.9540 0.0001
vt 0.591723 0.802981
vt 0.925734 0.802979
vt 0.926221 0.811353
vt 0.597757 0.811354
vt 0.003056 0.778934
vt 0.003086 0.773675
vt 0.011464 0.773429
vt 0.011446 0.778520
vt 0.395931 0.700023
vt 0.391484 0.700023
vt 0.391486 0.003038
vt 0.395933 0.003038
vt 0.409105 0.003038
vt 0.409103 0.700023
vt 0.421349 0.003038
vt 0.421347 0.700023
vt 0.432147 0.003038
vt 0.432145 0.700023
vt 0.441793 0.003038
vt 0.441791 0.700023
vt 0.355272 0.003038
vt 0.355270 0.700023
vt 0.345624 0.700023
vt 0.345626 0.003038
vt 0.366070 0.003038
vt 0.366068 0.700023
vt 0.378314 0.003038
vt 0.378312 0.700023
vt 0.434345 0.795537
vt 0.003036 0.795537
vt 0.003036 0.786721
vt 0.434345 0.786721
vt 0.775805 0.700024
vt 0.775807 0.003039
vt 0.967223 0.795537
vt 0.535914 0.795537
vt 0.535914 0.786721
vt 0.967223 0.786721
vt 0.482754 0.795537
vt 0.467238 0.795537
vt 0.467238 0.786721
vt 0.482754 0.786721
vt 0.453835 0.795537
vt 0.453835 0.786721
vt 0.443036 0.795537
vt 0.443036 0.786721
vt 0.527223 0.795537
vt 0.527223 0.786721
vt 0.516424 0.795537
vt 0.516424 0.786721
vt 0.503021 0.795537
vt 0.503021 0.786721
vt 0.487505 0.795537
vt 0.487505 0.786721
vt 0.904224 0.003050
vt 0.909932 0.003050
vt 0.909932 0.694298
vt 0.904224 0.694298
vt 0.003085 0.715008
vt 0.003053 0.709747
vt 0.011446 0.710159
vt 0.011464 0.715254
vt 0.003081 0.722108
vt 0.011462 0.722204
vt 0.003719 0.819204
vt 0.337733 0.819205
vt 0.331699 0.827579
vt 0.003231 0.827578
vt 0.003058 0.731446
vt 0.011443 0.731463
vt 0.003057 0.757232
vt 0.003047 0.745960
vt 0.011429 0.745959
vt 0.011444 0.757214
vt 0.003047 0.742717
vt 0.011429 0.742718
vt 0.003082 0.766574
vt 0.011463 0.766477
vt 0.996952 0.960436
vt 0.990918 0.952062
vt 0.990920 0.271825
vt 0.996954 0.263451
vt 0.984834 0.011956
vt 0.984832 0.692193
vt 0.978798 0.700567
vt 0.978800 0.003582
vt 0.011610 0.700022
vt 0.011612 0.003037
vt 0.003048 0.700022
vt 0.003050 0.003037
vt 0.784367 0.700024
vt 0.784369 0.003039
vt 0.339215 0.827585
vt 0.345249 0.819211
vt 0.673716 0.819212
vt 0.673229 0.827586
vt 0.699920 0.778934
vt 0.691528 0.778522
vt 0.691510 0.773427
vt 0.699889 0.773673
vt 0.263670 0.802968
vt 0.263670 0.811784
vt 0.003051 0.811784
vt 0.003051 0.802968
vt 0.585662 0.802968
vt 0.585662 0.811784
vt 0.325043 0.811784
vt 0.325043 0.802968
vt 0.292921 0.802968
vt 0.292921 0.811784
vt 0.283546 0.811784
vt 0.283546 0.802968
vt 0.275447 0.811784
vt 0.275447 0.802968
vt 0.268922 0.811784
vt 0.268922 0.802968
vt 0.319791 0.811784
vt 0.319791 0.802968
vt 0.313267 0.811784
vt 0.313267 0.802968
vt 0.305168 0.811784
vt 0.305168 0.802968
vt 0.295792 0.811784
vt 0.295792 0.802968
vt 0.699888 0.715006
vt 0.691510 0.715252
vt 0.691528 0.710161
vt 0.699918 0.709747
vt 0.699893 0.722107
vt 0.691511 0.722204
vt 0.003717 0.843821
vt 0.003230 0.835448
vt 0.331692 0.835445
vt 0.337727 0.843818
vt 0.699917 0.731449
vt 0.691531 0.731467
vt 0.699916 0.757235
vt 0.691531 0.757218
vt 0.691545 0.745963
vt 0.699927 0.745964
vt 0.699927 0.742722
vt 0.691545 0.742723
vt 0.699892 0.766573
vt 0.691512 0.766477
vt 0.966992 0.003054
vt 0.972699 0.003054
vt 0.972699 0.339324
vt 0.966992 0.339324
vt 0.956583 0.684466
vt 0.956583 0.348196
vt 0.967000 0.348196
vt 0.967000 0.684466
vt 0.853241 0.003050
vt 0.858958 0.003050
vt 0.858958 0.694298
vt 0.853241 0.694298
vt 0.956575 0.339324
vt 0.944381 0.339324
vt 0.944381 0.003054
vt 0.956575 0.003054
vt 0.932162 0.003054
vt 0.932162 0.339324
vt 0.932170 0.348196
vt 0.944389 0.348196
vt 0.944389 0.684466
vt 0.932170 0.684466
vt 0.893807 0.694298
vt 0.893807 0.003050
vt 0.881613 0.694298
vt 0.881613 0.003050
vt 0.869394 0.694298
vt 0.869394 0.003050
vt 0.796181 0.705815
vt 0.790464 0.705815
vt 0.790464 0.003037
vt 0.796181 0.003037
vt 0.972708 0.684466
vt 0.972708 0.348196
vt 0.921725 0.339324
vt 0.921725 0.003054
vt 0.921734 0.684466
vt 0.921734 0.348196
vt 0.806617 0.003037
vt 0.806617 0.705815
vt 0.818836 0.003037
vt 0.818836 0.705815
vt 0.831030 0.003037
vt 0.831030 0.705815
vt 0.841447 0.003037
vt 0.841447 0.705815
vt 0.847155 0.705815
vt 0.847155 0.003037
vt 0.916009 0.003054
vt 0.916009 0.339324
vt 0.916018 0.684466
vt 0.916018 0.348196
s 1
usemtl GRIDCHECK.001
f 1/1/1 4/2/2 32/3/3 25/4/1
f 4/5/2 6/6/4 31/7/5 32/8/3
f 51/9/6 60/10/7 24/11/7 15/12/6
f 16/13/8 52/14/8 51/9/6 15/12/6
f 17/15/9 53/16/9 52/14/8 16/13/8
f 18/17/10 54/18/11 53/16/9 17/15/9
f 19/19/12 55/20/13 54/18/11 18/17/10
f 21/21/14 57/22/14 56/23/15 20/24/15
f 22/25/16 58/26/16 57/22/14 21/21/14
f 23/27/17 59/28/18 58/26/16 22/25/16
f 4/29/19 1/30/19 13/31/19 19/32/19
f 49/33/20 55/20/13 19/19/12 13/34/20
f 2/35/19 3/36/19 20/37/19 14/38/19
f 5/39/19 8/40/19 16/41/19 15/42/19
f 8/40/19 7/43/19 17/44/19 16/41/19
f 7/43/19 6/45/19 18/46/19 17/44/19
f 6/45/19 4/29/19 19/32/19 18/46/19
f 3/36/19 12/47/19 21/48/19 20/37/19
f 12/47/19 11/49/19 22/50/19 21/48/19
f 11/49/19 10/51/19 23/52/19 22/50/19
f 10/51/19 9/53/19 24/54/19 23/52/19
f 9/53/19 5/39/19 15/42/19 24/54/19
f 78/55/21 63/56/22 27/57/22 74/58/21
f 24/11/7 60/10/7 59/28/18 23/27/17
f 12/59/23 3/60/24 27/61/25 33/62/26
f 11/63/27 12/59/23 33/62/26 34/64/28
f 3/65/24 2/66/20 26/67/20 27/68/25
f 10/69/29 11/63/27 34/64/28 35/70/30
f 8/71/31 5/72/32 28/73/33 29/74/34
f 9/75/35 10/69/29 35/70/30 36/76/36
f 5/72/32 9/75/35 36/76/36 28/73/33
f 7/77/37 8/71/31 29/74/34 30/78/38
f 6/6/4 7/77/37 30/78/38 31/7/5
f 38/79/20 62/80/20 26/81/20 2/82/20
f 25/83/1 61/84/1 37/85/1 1/86/1
f 56/23/15 50/87/1 14/88/1 20/24/15
f 14/88/39 50/87/39 38/89/39 2/90/39
f 37/91/39 49/33/39 13/34/39 1/92/39
f 37/93/1 61/94/1 68/95/40 40/96/41
f 40/97/41 68/98/40 67/99/42 42/100/43
f 40/101/44 55/102/44 49/103/44 37/104/44
f 38/105/44 50/106/44 56/107/44 39/108/44
f 41/109/44 51/110/44 52/111/44 44/112/44
f 44/112/44 52/111/44 53/113/44 43/114/44
f 43/114/44 53/113/44 54/115/44 42/116/44
f 42/116/44 54/115/44 55/102/44 40/101/44
f 39/108/44 56/107/44 57/117/44 48/118/44
f 48/118/44 57/117/44 58/119/44 47/120/44
f 47/120/44 58/119/44 59/121/44 46/122/44
f 46/122/44 59/121/44 60/123/44 45/124/44
f 45/124/44 60/123/44 51/110/44 41/109/44
f 48/125/45 69/126/46 63/127/47 39/128/48
f 47/129/49 70/130/50 69/126/46 48/125/45
f 39/131/48 63/132/47 62/133/20 38/134/20
f 46/135/51 71/136/30 70/130/50 47/129/49
f 44/137/52 65/138/34 64/139/53 41/140/54
f 45/141/55 72/142/56 71/136/30 46/135/51
f 41/140/54 64/139/53 72/142/56 45/141/55
f 43/143/57 66/144/58 65/138/34 44/137/52
f 42/100/43 67/99/42 66/144/58 43/143/57
f 74/145/59 27/146/60 26/147/60 83/148/59
f 63/127/47 69/126/46 33/62/26 27/61/25
f 69/126/46 70/130/50 34/64/28 33/62/26
f 70/130/50 71/136/30 35/70/30 34/64/28
f 71/136/30 72/142/56 36/76/36 35/70/30
f 72/142/56 64/139/53 28/73/33 36/76/36
f 64/139/53 65/138/34 29/74/34 28/73/33
f 65/138/34 66/144/58 30/78/38 29/74/34
f 66/144/58 67/99/42 31/7/5 30/78/38
f 67/99/42 68/98/40 32/8/3 31/7/5
f 80/149/61 92/150/61 89/151/62 78/152/62
f 68/153/63 79/154/64 73/155/65 32/156/63
f 85/157/66 86/158/67 76/159/68 77/160/66
f 74/145/59 83/148/59 85/157/66 77/160/66
f 75/161/69 76/159/68 86/158/67 87/162/69
f 90/163/70 91/164/71 81/165/72 82/166/73
f 80/149/61 81/165/72 91/164/71 92/150/61
f 78/55/21 74/58/21 77/167/74 80/168/74
f 80/168/74 77/167/74 76/169/75 81/170/76
f 81/170/76 76/169/75 75/171/77 82/172/78
f 82/172/78 75/171/77 73/155/65 79/154/64
f 88/173/79 61/174/79 25/175/79 84/176/79
f 63/177/80 78/152/62 89/151/62 62/178/80
f 75/161/69 87/162/69 84/179/81 73/180/82
f 79/181/83 88/182/83 90/163/70 82/166/73
f 88/173/84 84/176/84 87/183/85 90/184/86
f 90/184/86 87/183/85 86/185/87 91/186/87
f 91/186/87 86/185/87 85/187/88 92/188/88
f 92/188/88 85/187/88 83/189/89 89/190/89
f 62/191/90 89/190/90 83/189/90 26/192/90
f 32/193/91 73/180/82 84/179/81 25/194/91
f 68/195/92 61/196/92 88/182/83 79/181/83
