# Blender 3.6.2
# www.blender.org
mtllib SetA_Book_Style_04.mtl
o SetA_Book_Style_04
v -0.016552 -0.144795 0.106893
v 0.016552 -0.144795 0.106893
v 0.016552 -0.144795 -0.092407
v -0.016552 -0.144795 -0.092407
v -0.000967 -0.144795 -0.101784
v -0.015529 -0.144795 -0.095369
v -0.012638 -0.144795 -0.098451
v -0.007618 -0.144795 -0.100841
v 0.000967 -0.144795 -0.101784
v 0.007618 -0.144795 -0.100841
v 0.012638 -0.144795 -0.098451
v 0.015529 -0.144795 -0.095369
v -0.021661 -0.144795 0.106893
v 0.021661 -0.144795 0.106893
v -0.001327 -0.144795 -0.106893
v -0.009108 -0.144795 -0.105790
v -0.015705 -0.144795 -0.102650
v -0.020113 -0.144795 -0.097951
v -0.021661 -0.144795 -0.092407
v 0.021661 -0.144795 -0.092407
v 0.020113 -0.144795 -0.097951
v 0.015705 -0.144795 -0.102650
v 0.009108 -0.144795 -0.105790
v 0.001327 -0.144795 -0.106893
v -0.016552 -0.139798 0.103292
v 0.016552 -0.139798 0.103292
v 0.016552 -0.139798 -0.092698
v -0.000967 -0.139798 -0.101751
v -0.007618 -0.139798 -0.100841
v -0.012638 -0.139798 -0.098534
v -0.015529 -0.139798 -0.095558
v -0.016552 -0.139798 -0.092698
v 0.015529 -0.139798 -0.095558
v 0.012638 -0.139798 -0.098534
v 0.007618 -0.139798 -0.100841
v 0.000967 -0.139798 -0.101751
v -0.016552 0.144795 0.106893
v 0.016552 0.144795 0.106893
v 0.016552 0.144795 -0.092407
v -0.016552 0.144795 -0.092407
v -0.000967 0.144795 -0.101784
v -0.015529 0.144795 -0.095369
v -0.012638 0.144795 -0.098451
v -0.007618 0.144795 -0.100841
v 0.000967 0.144795 -0.101784
v 0.007618 0.144795 -0.100841
v 0.012638 0.144795 -0.098451
v 0.015529 0.144795 -0.095369
v -0.021661 0.144795 0.106893
v 0.021661 0.144795 0.106893
v -0.001327 0.144795 -0.106893
v -0.009108 0.144795 -0.105790
v -0.015705 0.144795 -0.102650
v -0.020113 0.144795 -0.097951
v -0.021661 0.144795 -0.092407
v 0.021661 0.144795 -0.092407
v 0.020113 0.144795 -0.097951
v 0.015705 0.144795 -0.102650
v 0.009108 0.144795 -0.105790
v 0.001327 0.144795 -0.106893
v -0.016552 0.139798 0.103292
v 0.016552 0.139798 0.103292
v 0.016552 0.139798 -0.092698
v -0.000967 0.139798 -0.101751
v -0.007618 0.139798 -0.100841
v -0.012638 0.139798 -0.098534
v -0.015529 0.139798 -0.095558
v -0.016552 0.139798 -0.092698
v 0.015529 0.139798 -0.095558
v 0.012638 0.139798 -0.098534
v 0.007618 0.139798 -0.100841
v 0.000967 0.139798 -0.101751
v -0.013308 -0.139339 -0.093469
v 0.013308 -0.139271 -0.093469
v -0.007202 -0.138560 -0.094438
v -0.000000 -0.139106 -0.094779
v 0.007202 -0.138706 -0.094439
v 0.013308 0.139457 -0.093469
v -0.013308 0.139063 -0.093469
v 0.007202 0.139864 -0.094439
v -0.000000 0.139798 -0.094779
v -0.007202 0.139430 -0.094438
v 0.013429 -0.139271 0.101964
v -0.013429 -0.139339 0.102077
v 0.007268 -0.138706 0.102115
v 0.000000 -0.139106 0.101785
v -0.007268 -0.138560 0.102311
v -0.013429 0.139063 0.102077
v 0.013429 0.139457 0.101964
v -0.007268 0.139430 0.102311
v 0.000000 0.139798 0.101785
v 0.007268 0.139864 0.102115
vn 1.0000 -0.0000 -0.0000
vn 1.0000 0.0002 0.0051
vn 0.9872 0.0001 0.1595
vn 0.8349 0.0179 0.5501
vn 0.8306 0.0003 0.5568
vn -0.1051 -0.0000 -0.9945
vn 0.1051 -0.0000 -0.9945
vn -0.2830 -0.0000 -0.9591
vn -0.5802 -0.0000 -0.8145
vn -0.8645 -0.0000 -0.5027
vn -1.0000 -0.0000 -0.0075
vn 0.8645 -0.0000 -0.5027
vn 1.0000 -0.0000 -0.0075
vn 0.5802 -0.0000 -0.8145
vn 0.2830 -0.0000 -0.9591
vn -0.0000 -1.0000 -0.0000
vn -1.0000 -0.0000 -0.0000
vn 0.1830 -0.0000 -0.9831
vn 0.2312 -0.0000 -0.9729
vn -0.8349 0.0175 0.5501
vn -1.0000 0.0002 0.0051
vn -0.9872 0.0001 0.1595
vn -0.8306 0.0003 0.5568
vn -0.5621 0.0125 0.8270
vn -0.5554 0.0002 0.8316
vn -0.2701 0.0016 0.9628
vn -0.2658 -0.0000 0.9640
vn 0.2701 0.0016 0.9628
vn 0.1073 -0.0040 0.9942
vn 0.1055 -0.0001 0.9944
vn 0.2658 -0.0000 0.9640
vn -0.1073 -0.0040 0.9942
vn -0.1055 -0.0001 0.9944
vn 0.5621 0.0125 0.8270
vn 0.5554 0.0002 0.8316
vn -0.0000 -0.0000 1.0000
vn 0.9872 -0.0001 0.1595
vn 1.0000 -0.0002 0.0051
vn 0.8306 -0.0003 0.5568
vn 0.8349 -0.0175 0.5501
vn -0.0000 1.0000 -0.0000
vn -0.8349 -0.0179 0.5501
vn -0.8306 -0.0003 0.5568
vn -0.9872 -0.0001 0.1595
vn -1.0000 -0.0002 0.0051
vn -0.5621 -0.0125 0.8270
vn -0.5554 -0.0002 0.8316
vn -0.2701 -0.0016 0.9628
vn 0.2701 -0.0016 0.9628
vn 0.1055 0.0001 0.9944
vn 0.1073 0.0040 0.9942
vn -0.1073 0.0040 0.9942
vn -0.1055 0.0001 0.9944
vn 0.5621 -0.0125 0.8270
vn 0.5554 -0.0002 0.8316
vn -0.1164 -0.9932 -0.0000
vn -0.1633 -0.9866 0.0001
vn 0.0255 0.9997 -0.0000
vn 0.0254 0.9997 -0.0000
vn 0.0072 1.0000 -0.0000
vn -0.2312 -0.0000 -0.9729
vn -0.1830 -0.0000 -0.9831
vn -0.0122 -0.9999 -0.0000
vn -0.0100 -1.0000 -0.0000
vn -0.0100 -0.9999 -0.0000
vn 0.0173 -0.9999 -0.0000
vn -0.0548 0.9985 -0.0000
vn -0.0302 0.9995 -0.0000
vn -0.0300 0.9996 -0.0000
vn -0.0549 0.9985 -0.0000
vn 0.0979 -0.0000 -0.9952
vn 0.0980 -0.0000 -0.9952
vn -0.0002 -0.0000 -1.0000
vn -0.0000 -0.0000 -1.0000
vn -0.0980 -0.0000 -0.9952
vn 0.1054 -0.0000 0.9944
vn 0.3626 -0.0000 0.9319
vn -0.1066 0.9943 -0.0000
vn 0.1317 -0.9913 0.0001
vn 0.0393 0.9992 -0.0000
vn 0.0394 0.9992 -0.0000
vn 0.0218 -0.0000 0.9998
vn 0.0134 -0.0000 0.9999
vn -0.0133 -0.0000 0.9999
vn -0.1259 -0.0000 0.9920
vn -0.3914 -0.0000 0.9202
vn 0.1427 -0.9898 -0.0000
vn 0.2249 0.9744 0.0001
vt 0.363246 0.671967
vt 0.003273 0.671968
vt 0.002748 0.662943
vt 0.356743 0.662942
vt 0.002617 0.606264
vt 0.002649 0.600596
vt 0.011678 0.600331
vt 0.011658 0.605817
vt 0.426013 0.525654
vt 0.421221 0.525654
vt 0.421221 0.002599
vt 0.426014 0.002599
vt 0.440209 0.002599
vt 0.440209 0.525654
vt 0.453405 0.002599
vt 0.453405 0.525654
vt 0.465043 0.002599
vt 0.465042 0.525654
vt 0.475438 0.002599
vt 0.475437 0.525654
vt 0.382192 0.002599
vt 0.382192 0.525654
vt 0.371797 0.525654
vt 0.371797 0.002599
vt 0.393830 0.002599
vt 0.393829 0.525654
vt 0.407026 0.002599
vt 0.407025 0.525654
vt 0.362567 0.921094
vt 0.002593 0.921094
vt 0.002593 0.911866
vt 0.362567 0.911866
vt 0.835412 0.525655
vt 0.835412 0.002600
vt 0.807314 0.921094
vt 0.447338 0.921094
vt 0.447338 0.911866
vt 0.807314 0.911866
vt 0.402970 0.921094
vt 0.390020 0.921094
vt 0.390020 0.911866
vt 0.402970 0.911866
vt 0.378834 0.921094
vt 0.378834 0.911866
vt 0.369821 0.921094
vt 0.369821 0.911866
vt 0.440084 0.921094
vt 0.440084 0.911866
vt 0.431072 0.921094
vt 0.431072 0.911866
vt 0.419885 0.921094
vt 0.419885 0.911866
vt 0.406936 0.921094
vt 0.406936 0.911866
vt 0.968019 0.002591
vt 0.974009 0.002591
vt 0.974009 0.494688
vt 0.968019 0.494688
vt 0.002648 0.537369
vt 0.002614 0.531700
vt 0.011658 0.532144
vt 0.011678 0.537635
vt 0.002644 0.545021
vt 0.011676 0.545125
vt 0.364336 0.620108
vt 0.004361 0.620108
vt 0.010864 0.611084
vt 0.364861 0.611084
vt 0.002618 0.555085
vt 0.011655 0.555104
vt 0.002618 0.582876
vt 0.002607 0.570727
vt 0.011640 0.570726
vt 0.011656 0.582856
vt 0.002607 0.567232
vt 0.011640 0.567233
vt 0.002644 0.592943
vt 0.011677 0.592839
vt 0.979210 0.003044
vt 0.985713 0.012069
vt 0.985713 0.517074
vt 0.979210 0.526099
vt 0.990900 0.517084
vt 0.990900 0.012079
vt 0.997403 0.003054
vt 0.997403 0.526109
vt 0.011822 0.525654
vt 0.011823 0.002599
vt 0.002594 0.525654
vt 0.002595 0.002599
vt 0.844640 0.525655
vt 0.844640 0.002600
vt 0.363241 0.645661
vt 0.356738 0.654685
vt 0.002741 0.654685
vt 0.003267 0.645661
vt 0.525590 0.606264
vt 0.516546 0.605819
vt 0.516526 0.600329
vt 0.525557 0.600594
vt 0.307433 0.929163
vt 0.307433 0.938554
vt 0.002593 0.938554
vt 0.002593 0.929163
vt 0.684061 0.929163
vt 0.684061 0.938554
vt 0.379221 0.938554
vt 0.379221 0.929163
vt 0.341648 0.929163
vt 0.341648 0.938554
vt 0.330682 0.938554
vt 0.330682 0.929163
vt 0.321208 0.938554
vt 0.321208 0.929163
vt 0.313576 0.938554
vt 0.313576 0.929163
vt 0.373078 0.938554
vt 0.373078 0.929163
vt 0.365446 0.938554
vt 0.365446 0.929163
vt 0.355972 0.938554
vt 0.355972 0.929163
vt 0.345006 0.938554
vt 0.345006 0.929163
vt 0.525555 0.537368
vt 0.516526 0.537632
vt 0.516546 0.532146
vt 0.525587 0.531700
vt 0.525560 0.545021
vt 0.516527 0.545125
vt 0.363000 0.628361
vt 0.363525 0.637385
vt 0.009529 0.637386
vt 0.003026 0.628361
vt 0.525587 0.555088
vt 0.516548 0.555107
vt 0.525586 0.582879
vt 0.516549 0.582860
vt 0.516564 0.570731
vt 0.525597 0.570732
vt 0.525597 0.567237
vt 0.516564 0.567238
vt 0.525560 0.592942
vt 0.516528 0.592838
vt 0.903326 0.521197
vt 0.909316 0.521197
vt 0.909316 0.868853
vt 0.903326 0.868853
vt 0.573343 0.903419
vt 0.573343 0.555763
vt 0.584275 0.555763
vt 0.584275 0.903419
vt 0.914516 0.002591
vt 0.920515 0.002591
vt 0.920515 0.494688
vt 0.914516 0.494688
vt 0.892394 0.868853
vt 0.879598 0.868853
vt 0.879598 0.521197
vt 0.892394 0.521197
vt 0.866775 0.521197
vt 0.866775 0.868853
vt 0.547723 0.555763
vt 0.560546 0.555763
vt 0.560546 0.903419
vt 0.547723 0.903419
vt 0.957087 0.494688
vt 0.957087 0.002591
vt 0.944290 0.494688
vt 0.944290 0.002591
vt 0.931467 0.494688
vt 0.931467 0.002591
vt 0.855828 0.506606
vt 0.849829 0.506606
vt 0.849829 0.002588
vt 0.855828 0.002588
vt 0.590264 0.903419
vt 0.590264 0.555763
vt 0.855822 0.868853
vt 0.855822 0.521197
vt 0.536771 0.903419
vt 0.536771 0.555763
vt 0.866780 0.002588
vt 0.866780 0.506606
vt 0.879603 0.002588
vt 0.879603 0.506606
vt 0.892399 0.002588
vt 0.892399 0.506606
vt 0.903331 0.002588
vt 0.903331 0.506606
vt 0.909321 0.506606
vt 0.909321 0.002588
vt 0.849824 0.521197
vt 0.849824 0.868853
vt 0.530772 0.903419
vt 0.530772 0.555763
s 1
usemtl GRIDCHECK.001
f 1/1/1 4/2/2 32/3/3 25/4/1
f 4/5/2 6/6/4 31/7/5 32/8/3
f 51/9/6 60/10/7 24/11/7 15/12/6
f 16/13/8 52/14/8 51/9/6 15/12/6
f 17/15/9 53/16/9 52/14/8 16/13/8
f 18/17/10 54/18/10 53/16/9 17/15/9
f 19/19/11 55/20/11 54/18/10 18/17/10
f 21/21/12 57/22/12 56/23/13 20/24/13
f 22/25/14 58/26/14 57/22/12 21/21/12
f 23/27/15 59/28/15 58/26/14 22/25/14
f 4/29/16 1/30/16 13/31/16 19/32/16
f 49/33/17 55/20/11 19/19/11 13/34/17
f 2/35/16 3/36/16 20/37/16 14/38/16
f 5/39/16 8/40/16 16/41/16 15/42/16
f 8/40/16 7/43/16 17/44/16 16/41/16
f 7/43/16 6/45/16 18/46/16 17/44/16
f 6/45/16 4/29/16 19/32/16 18/46/16
f 3/36/16 12/47/16 21/48/16 20/37/16
f 12/47/16 11/49/16 22/50/16 21/48/16
f 11/49/16 10/51/16 23/52/16 22/50/16
f 10/51/16 9/53/16 24/54/16 23/52/16
f 9/53/16 5/39/16 15/42/16 24/54/16
f 78/55/18 63/56/19 27/57/19 74/58/18
f 24/11/7 60/10/7 59/28/15 23/27/15
f 12/59/20 3/60/21 27/61/22 33/62/23
f 11/63/24 12/59/20 33/62/23 34/64/25
f 3/65/21 2/66/17 26/67/17 27/68/22
f 10/69/26 11/63/24 34/64/25 35/70/27
f 8/71/28 5/72/29 28/73/30 29/74/31
f 9/75/32 10/69/26 35/70/27 36/76/33
f 5/72/29 9/75/32 36/76/33 28/73/30
f 7/77/34 8/71/28 29/74/31 30/78/35
f 6/6/4 7/77/34 30/78/35 31/7/5
f 38/79/17 62/80/17 26/81/17 2/82/17
f 25/83/1 61/84/1 37/85/1 1/86/1
f 56/23/13 50/87/1 14/88/1 20/24/13
f 14/88/36 50/87/36 38/89/36 2/90/36
f 37/91/36 49/33/36 13/34/36 1/92/36
f 37/93/1 61/94/1 68/95/37 40/96/38
f 40/97/38 68/98/37 67/99/39 42/100/40
f 40/101/41 55/102/41 49/103/41 37/104/41
f 38/105/41 50/106/41 56/107/41 39/108/41
f 41/109/41 51/110/41 52/111/41 44/112/41
f 44/112/41 52/111/41 53/113/41 43/114/41
f 43/114/41 53/113/41 54/115/41 42/116/41
f 42/116/41 54/115/41 55/102/41 40/101/41
f 39/108/41 56/107/41 57/117/41 48/118/41
f 48/118/41 57/117/41 58/119/41 47/120/41
f 47/120/41 58/119/41 59/121/41 46/122/41
f 46/122/41 59/121/41 60/123/41 45/124/41
f 45/124/41 60/123/41 51/110/41 41/109/41
f 48/125/42 69/126/43 63/127/44 39/128/45
f 47/129/46 70/130/47 69/126/43 48/125/42
f 39/131/45 63/132/44 62/133/17 38/134/17
f 46/135/48 71/136/27 70/130/47 47/129/46
f 44/137/49 65/138/31 64/139/50 41/140/51
f 45/141/52 72/142/53 71/136/27 46/135/48
f 41/140/51 64/139/50 72/142/53 45/141/52
f 43/143/54 66/144/55 65/138/31 44/137/49
f 42/100/40 67/99/39 66/144/55 43/143/54
f 74/145/56 27/146/57 26/147/57 83/148/56
f 63/127/44 69/126/43 33/62/23 27/61/22
f 69/126/43 70/130/47 34/64/25 33/62/23
f 70/130/47 71/136/27 35/70/27 34/64/25
f 71/136/27 72/142/53 36/76/33 35/70/27
f 72/142/53 64/139/50 28/73/30 36/76/33
f 64/139/50 65/138/31 29/74/31 28/73/30
f 65/138/31 66/144/55 30/78/35 29/74/31
f 66/144/55 67/99/39 31/7/5 30/78/35
f 67/99/39 68/98/37 32/8/3 31/7/5
f 80/149/58 92/150/59 89/151/60 78/152/60
f 68/153/61 79/154/62 73/155/62 32/156/61
f 85/157/63 86/158/64 76/159/65 77/160/63
f 74/145/56 83/148/56 85/157/63 77/160/63
f 75/161/66 76/159/65 86/158/64 87/162/66
f 90/163/67 91/164/68 81/165/69 82/166/70
f 80/149/58 81/165/69 91/164/68 92/150/59
f 78/55/18 74/58/18 77/167/71 80/168/72
f 80/168/72 77/167/71 76/169/73 81/170/74
f 81/170/74 76/169/73 75/171/75 82/172/75
f 82/172/75 75/171/75 73/155/62 79/154/62
f 88/173/76 61/174/77 25/175/77 84/176/76
f 63/177/78 78/152/60 89/151/60 62/178/78
f 75/161/66 87/162/66 84/179/79 73/180/79
f 79/181/80 88/182/81 90/163/67 82/166/70
f 88/173/76 84/176/76 87/183/82 90/184/82
f 90/184/82 87/183/82 86/185/83 91/186/83
f 91/186/83 86/185/83 85/187/84 92/188/84
f 92/188/84 85/187/84 83/189/85 89/190/85
f 62/191/86 89/190/85 83/189/85 26/192/86
f 32/193/87 73/180/79 84/179/79 25/194/87
f 68/195/88 61/196/88 88/182/81 79/181/80
