# Blender 3.6.2
# www.blender.org
mtllib SetA_Book_Style_03.mtl
o SetA_Book_Style_03
v 0.004879 -0.092505 0.068323
v -0.003002 -0.092585 0.068323
v -0.003002 -0.092585 -0.059065
v 0.004879 -0.092505 -0.059065
v 0.001169 -0.092542 -0.065058
v 0.004636 -0.092507 -0.060958
v 0.003947 -0.092514 -0.062928
v 0.002752 -0.092526 -0.064455
v 0.000709 -0.092547 -0.065058
v -0.000875 -0.092563 -0.064455
v -0.002070 -0.092575 -0.062928
v -0.002758 -0.092582 -0.060958
v 0.006095 -0.092492 0.068323
v -0.004218 -0.092597 0.068323
v 0.001254 -0.092542 -0.068323
v 0.003107 -0.092523 -0.067619
v 0.004677 -0.092507 -0.065612
v 0.005727 -0.092496 -0.062608
v 0.006095 -0.092492 -0.059065
v -0.004218 -0.092597 -0.059065
v -0.003850 -0.092593 -0.062608
v -0.002800 -0.092583 -0.065612
v -0.001230 -0.092567 -0.067619
v 0.000623 -0.092548 -0.068323
v 0.004847 -0.089311 0.066022
v -0.003034 -0.089391 0.066022
v -0.003034 -0.089391 -0.059251
v 0.001136 -0.089349 -0.065037
v 0.002720 -0.089333 -0.064455
v 0.003915 -0.089321 -0.062981
v 0.004603 -0.089314 -0.061079
v 0.004847 -0.089311 -0.059251
v -0.002791 -0.089389 -0.061079
v -0.002103 -0.089382 -0.062981
v -0.000907 -0.089370 -0.064455
v 0.000676 -0.089354 -0.065037
v 0.002183 0.173301 0.068323
v -0.005698 0.173221 0.068323
v -0.005698 0.173221 -0.059065
v 0.002183 0.173301 -0.059065
v -0.001527 0.173264 -0.065058
v 0.001940 0.173299 -0.060958
v 0.001251 0.173292 -0.062928
v 0.000056 0.173280 -0.064455
v -0.001987 0.173259 -0.065058
v -0.003571 0.173243 -0.064455
v -0.004766 0.173231 -0.062928
v -0.005454 0.173224 -0.060958
v 0.003399 0.173314 0.068323
v -0.006914 0.173209 0.068323
v -0.001441 0.173265 -0.068323
v 0.000411 0.173283 -0.067619
v 0.001982 0.173299 -0.065612
v 0.003031 0.173310 -0.062608
v 0.003399 0.173314 -0.059065
v -0.006914 0.173209 -0.059065
v -0.006546 0.173213 -0.062608
v -0.005496 0.173224 -0.065612
v -0.003926 0.173239 -0.067619
v -0.002073 0.173258 -0.068323
v 0.002215 0.170108 0.066022
v -0.005665 0.170028 0.066022
v -0.005665 0.170028 -0.059251
v -0.001495 0.170070 -0.065037
v 0.000089 0.170086 -0.064455
v 0.001284 0.170098 -0.062981
v 0.001972 0.170105 -0.061079
v 0.002216 0.170108 -0.059251
v -0.005422 0.170030 -0.061079
v -0.004734 0.170037 -0.062981
v -0.003538 0.170050 -0.064455
v -0.001955 0.170066 -0.065037
v 0.004072 -0.089026 -0.059743
v -0.002265 -0.089047 -0.059743
v 0.002613 -0.088543 -0.060363
v 0.000902 -0.088909 -0.060581
v -0.000815 -0.088671 -0.060363
v -0.004891 0.169818 -0.059743
v 0.001448 0.169630 -0.059743
v -0.003440 0.170093 -0.060363
v -0.001725 0.170068 -0.060581
v -0.000008 0.169850 -0.060363
v -0.002294 -0.089047 0.065173
v 0.004100 -0.089026 0.065245
v -0.000831 -0.088671 0.065270
v 0.000902 -0.088909 0.065059
v 0.002628 -0.088542 0.065395
v 0.001477 0.169631 0.065245
v -0.004920 0.169817 0.065173
v 0.000008 0.169850 0.065395
v -0.001725 0.170068 0.065059
v -0.003456 0.170093 0.065270
vn -0.9999 -0.0101 -0.0000
vn -0.9973 -0.0101 0.0722
vn -0.9999 -0.0101 0.0019
vn -0.9702 -0.0097 0.2423
vn -0.9712 -0.0021 0.2383
vn 0.2729 0.0028 -0.9620
vn -0.2729 -0.0028 -0.9620
vn 0.3555 0.0036 -0.9347
vn 0.8861 0.0090 -0.4634
vn 0.7875 0.0080 -0.6163
vn 0.9773 0.0099 -0.2117
vn 0.9999 0.0101 -0.0028
vn -0.9773 -0.0099 -0.2117
vn -0.9999 -0.0101 -0.0028
vn -0.8861 -0.0090 -0.4633
vn -0.7875 -0.0080 -0.6163
vn 0.0101 -0.9999 -0.0000
vn 0.9999 0.0101 -0.0000
vn -0.4470 -0.0045 -0.8945
vn -0.5378 -0.0055 -0.8431
vn -0.3555 -0.0036 -0.9347
vn 0.9710 0.0176 0.2383
vn 0.9702 0.0099 0.2423
vn 0.9973 0.0102 0.0722
vn 0.9999 0.0102 0.0019
vn 0.8768 0.0161 0.4806
vn 0.8733 0.0090 0.4871
vn 0.7822 0.0131 0.6229
vn 0.7769 0.0079 0.6296
vn -0.3501 -0.0066 0.9367
vn -0.3448 -0.0035 0.9387
vn -0.2738 -0.0028 0.9618
vn -0.2782 -0.0067 0.9605
vn 0.2783 -0.0019 0.9605
vn 0.2738 0.0027 0.9618
vn 0.3448 0.0035 0.9387
vn 0.3502 0.0005 0.9367
vn -0.8770 -0.0016 0.4806
vn -0.8733 -0.0087 0.4871
vn -0.7769 -0.0078 0.6296
vn -0.7823 -0.0028 0.6229
vn -0.0000 -0.0000 1.0000
vn -0.9999 -0.0102 0.0019
vn -0.9973 -0.0102 0.0722
vn -0.9710 -0.0176 0.2383
vn -0.9702 -0.0099 0.2423
vn -0.0101 0.9999 -0.0000
vn 0.9712 0.0021 0.2383
vn 0.9999 0.0100 0.0019
vn 0.9973 0.0101 0.0722
vn 0.9702 0.0097 0.2423
vn 0.8770 0.0016 0.4806
vn 0.8733 0.0087 0.4871
vn 0.7823 0.0028 0.6229
vn 0.7769 0.0078 0.6296
vn -0.3502 -0.0005 0.9367
vn -0.2783 0.0019 0.9605
vn -0.2738 -0.0027 0.9618
vn -0.3448 -0.0034 0.9387
vn 0.2782 0.0067 0.9605
vn 0.3501 0.0066 0.9367
vn 0.2738 0.0028 0.9618
vn -0.8768 -0.0161 0.4806
vn -0.7822 -0.0131 0.6229
vn -0.7769 -0.0079 0.6296
vn -0.8733 -0.0090 0.4871
vn 0.3098 -0.9508 -0.0000
vn 0.4153 -0.9097 -0.0000
vn -0.0784 0.9969 -0.0000
vn -0.0294 0.9996 -0.0000
vn -0.0783 0.9969 -0.0000
vn 0.5378 0.0055 -0.8431
vn 0.4470 0.0045 -0.8945
vn 0.4471 0.0045 -0.8945
vn 0.0430 -0.9991 -0.0000
vn 0.0372 -0.9993 -0.0000
vn 0.0373 -0.9993 -0.0000
vn 0.2086 -0.9780 -0.0000
vn 0.1359 0.9907 -0.0000
vn 0.1360 0.9907 -0.0000
vn 0.0700 0.9975 -0.0000
vn 0.0702 0.9975 -0.0000
vn -0.2557 -0.0026 -0.9668
vn -0.2555 -0.0026 -0.9668
vn -0.0000 -0.0000 -1.0000
vn -0.0001 -0.0000 -1.0000
vn 0.2554 0.0026 -0.9668
vn -0.7223 -0.0073 0.6915
vn 0.2668 0.9637 -0.0000
vn -0.3131 -0.9497 0.0001
vn -0.3265 -0.9452 0.0001
vn 0.1485 0.9889 -0.0000
vn 0.1015 0.0010 0.9948
vn -0.0585 -0.0006 0.9983
vn -0.0584 -0.0006 0.9983
vn -0.0361 -0.0004 0.9993
vn 0.0358 0.0004 0.9994
vn -0.0659 -0.0007 0.9978
vn 0.7523 0.0076 0.6588
vn -0.3515 -0.9362 -0.0000
vn -0.5354 0.8446 0.0001
vt 0.339480 0.824008
vt 0.345519 0.832389
vt 0.674275 0.832387
vt 0.673786 0.824006
vt 0.003084 0.779599
vt 0.011481 0.779185
vt 0.011500 0.774089
vt 0.003114 0.774335
vt 0.391825 0.700646
vt 0.391823 0.003045
vt 0.396274 0.003045
vt 0.396276 0.700646
vt 0.378640 0.003045
vt 0.378642 0.700646
vt 0.366385 0.003045
vt 0.366387 0.700646
vt 0.355577 0.003045
vt 0.355579 0.700646
vt 0.345923 0.003045
vt 0.345925 0.700646
vt 0.432521 0.003044
vt 0.442175 0.003044
vt 0.442177 0.700646
vt 0.432523 0.700646
vt 0.421713 0.003044
vt 0.421715 0.700646
vt 0.409458 0.003044
vt 0.409460 0.700646
vt 0.325329 0.807738
vt 0.325329 0.816562
vt 0.586179 0.816562
vt 0.586179 0.807738
vt 0.011615 0.700647
vt 0.011613 0.003046
vt 0.003050 0.807738
vt 0.003050 0.816562
vt 0.263900 0.816562
vt 0.263900 0.807738
vt 0.296051 0.807738
vt 0.296051 0.816562
vt 0.305435 0.816562
vt 0.305435 0.807738
vt 0.313541 0.816562
vt 0.313541 0.807738
vt 0.320072 0.816562
vt 0.320072 0.807738
vt 0.269157 0.816562
vt 0.269157 0.807738
vt 0.275688 0.816562
vt 0.275688 0.807738
vt 0.283794 0.816562
vt 0.283794 0.807738
vt 0.293178 0.816562
vt 0.293178 0.807738
vt 0.904460 0.003041
vt 0.904460 0.667159
vt 0.910143 0.667159
vt 0.910143 0.003041
vt 0.003113 0.715616
vt 0.011499 0.715863
vt 0.011481 0.710763
vt 0.003081 0.710351
vt 0.003109 0.722723
vt 0.011498 0.722819
vt 0.003728 0.840251
vt 0.003240 0.848633
vt 0.331999 0.848633
vt 0.338038 0.840252
vt 0.003086 0.732069
vt 0.011478 0.732086
vt 0.003085 0.757878
vt 0.011479 0.757860
vt 0.011465 0.746594
vt 0.003075 0.746595
vt 0.003075 0.743350
vt 0.011465 0.743351
vt 0.003110 0.767228
vt 0.011499 0.767131
vt 0.984814 0.701180
vt 0.984816 0.003578
vt 0.978776 0.011960
vt 0.978774 0.692799
vt 0.996957 0.011960
vt 0.990918 0.003579
vt 0.990916 0.701181
vt 0.996955 0.692800
vt 0.776484 0.003043
vt 0.776486 0.700645
vt 0.785054 0.003043
vt 0.785056 0.700645
vt 0.003045 0.700647
vt 0.003043 0.003046
vt 0.592237 0.816130
vt 0.926546 0.816131
vt 0.927034 0.807750
vt 0.598276 0.807749
vt 0.700565 0.779599
vt 0.700534 0.774334
vt 0.692148 0.774087
vt 0.692166 0.779186
vt 0.536386 0.800307
vt 0.968070 0.800307
vt 0.968070 0.791483
vt 0.537273 0.787426
vt 0.003044 0.800307
vt 0.434728 0.800307
vt 0.434728 0.791483
vt 0.003044 0.791483
vt 0.487935 0.800307
vt 0.503464 0.800307
vt 0.503464 0.791483
vt 0.487935 0.791483
vt 0.516879 0.800307
vt 0.516879 0.791483
vt 0.527687 0.800307
vt 0.527687 0.791483
vt 0.443427 0.800307
vt 0.443427 0.791483
vt 0.454235 0.800307
vt 0.454235 0.791483
vt 0.467650 0.800307
vt 0.467650 0.791483
vt 0.483179 0.800307
vt 0.483179 0.791483
vt 0.700533 0.715615
vt 0.700563 0.710351
vt 0.692166 0.710765
vt 0.692147 0.715861
vt 0.700538 0.722722
vt 0.692148 0.722819
vt 0.003710 0.832392
vt 0.338015 0.832389
vt 0.331976 0.824009
vt 0.003222 0.824011
vt 0.700562 0.732072
vt 0.692168 0.732090
vt 0.700561 0.757881
vt 0.700572 0.746600
vt 0.692183 0.746599
vt 0.692169 0.757864
vt 0.700572 0.743355
vt 0.692183 0.743356
vt 0.700537 0.767227
vt 0.692149 0.767131
vt 0.921913 0.332240
vt 0.921913 0.655312
vt 0.916230 0.655312
vt 0.916230 0.332240
vt 0.956622 0.326117
vt 0.966995 0.326117
vt 0.966995 0.003045
vt 0.956622 0.003045
vt 0.853693 0.003041
vt 0.853693 0.667159
vt 0.859385 0.667159
vt 0.859385 0.003041
vt 0.932286 0.655312
vt 0.932286 0.332240
vt 0.944428 0.332240
vt 0.944428 0.655312
vt 0.956596 0.332240
vt 0.956596 0.655312
vt 0.932312 0.003045
vt 0.932312 0.326117
vt 0.944480 0.326117
vt 0.944480 0.003045
vt 0.894087 0.003041
vt 0.894087 0.667159
vt 0.881945 0.003041
vt 0.881945 0.667159
vt 0.869778 0.003041
vt 0.869778 0.667159
vt 0.841904 0.678245
vt 0.841904 0.003049
vt 0.847596 0.003049
vt 0.847596 0.678245
vt 0.972678 0.326117
vt 0.972678 0.003045
vt 0.966988 0.332240
vt 0.966988 0.655312
vt 0.921920 0.326117
vt 0.921920 0.003045
vt 0.831512 0.678245
vt 0.831512 0.003049
vt 0.819345 0.678245
vt 0.819345 0.003049
vt 0.807202 0.678245
vt 0.807202 0.003049
vt 0.796829 0.678245
vt 0.796829 0.003049
vt 0.791146 0.678245
vt 0.791146 0.003049
vt 0.972680 0.332240
vt 0.972680 0.655312
vt 0.916228 0.326117
vt 0.916228 0.003045
s 1
usemtl GRIDCHECK.001
f 1/1/1 25/2/1 32/3/2 4/4/3
f 4/5/3 32/6/2 31/7/4 6/8/5
f 51/9/6 15/10/6 24/11/7 60/12/7
f 16/13/8 15/10/6 51/9/6 52/14/8
f 17/15/9 16/13/10 52/14/10 53/16/9
f 18/17/11 17/15/9 53/16/9 54/18/11
f 19/19/12 18/17/11 54/18/11 55/20/12
f 21/21/13 20/22/14 56/23/14 57/24/13
f 22/25/15 21/21/13 57/24/13 58/26/15
f 23/27/16 22/25/15 58/26/15 59/28/16
f 4/29/17 19/30/17 13/31/17 1/32/17
f 49/33/18 13/34/18 19/19/12 55/20/12
f 2/35/17 14/36/17 20/37/17 3/38/17
f 5/39/17 15/40/17 16/41/17 8/42/17
f 8/42/17 16/41/17 17/43/17 7/44/17
f 7/44/17 17/43/17 18/45/17 6/46/17
f 6/46/17 18/45/17 19/30/17 4/29/17
f 3/38/17 20/37/17 21/47/17 12/48/17
f 12/48/17 21/47/17 22/49/17 11/50/17
f 11/50/17 22/49/17 23/51/17 10/52/17
f 10/52/17 23/51/17 24/53/17 9/54/17
f 9/54/17 24/53/17 15/40/17 5/39/17
f 78/55/19 74/56/19 27/57/20 63/58/20
f 24/11/7 23/27/21 59/28/21 60/12/7
f 12/59/22 33/60/23 27/61/24 3/62/25
f 11/63/26 34/64/27 33/60/23 12/59/22
f 3/65/25 27/66/24 26/67/18 2/68/18
f 10/69/28 35/70/29 34/64/27 11/63/26
f 8/71/30 29/72/31 28/73/32 5/74/33
f 9/75/34 36/76/35 35/70/36 10/69/37
f 5/74/33 28/73/32 36/76/35 9/75/34
f 7/77/38 30/78/39 29/72/40 8/71/41
f 6/8/5 31/7/4 30/78/39 7/77/38
f 38/79/18 2/80/18 26/81/18 62/82/18
f 25/83/1 1/84/1 37/85/1 61/86/1
f 56/23/14 20/22/14 14/87/1 50/88/1
f 14/87/42 2/89/42 38/90/42 50/88/42
f 37/91/42 1/92/42 13/34/42 49/33/42
f 37/93/1 40/94/43 68/95/44 61/96/1
f 40/97/43 42/98/45 67/99/46 68/100/44
f 40/101/47 37/102/47 49/103/47 55/104/47
f 38/105/47 39/106/47 56/107/47 50/108/47
f 41/109/47 44/110/47 52/111/47 51/112/47
f 44/110/47 43/113/47 53/114/47 52/111/47
f 43/113/47 42/115/47 54/116/47 53/114/47
f 42/115/47 40/101/47 55/104/47 54/116/47
f 39/106/47 48/117/47 57/118/47 56/107/47
f 48/117/47 47/119/47 58/120/47 57/118/47
f 47/119/47 46/121/47 59/122/47 58/120/47
f 46/121/47 45/123/47 60/124/47 59/122/47
f 45/123/47 41/109/47 51/112/47 60/124/47
f 48/125/48 39/126/49 63/127/50 69/128/51
f 47/129/52 48/125/48 69/128/51 70/130/53
f 39/131/49 38/132/18 62/133/18 63/134/50
f 46/135/54 47/129/52 70/130/53 71/136/55
f 44/137/56 41/138/57 64/139/58 65/140/59
f 45/141/60 46/135/61 71/136/36 72/142/62
f 41/138/57 45/141/60 72/142/62 64/139/58
f 43/143/63 44/137/64 65/140/65 66/144/66
f 42/98/45 43/143/63 66/144/66 67/99/46
f 74/145/67 83/146/67 26/147/68 27/148/68
f 63/127/50 27/61/24 33/60/23 69/128/51
f 69/128/51 33/60/23 34/64/27 70/130/53
f 70/130/53 34/64/27 35/70/29 71/136/55
f 71/136/36 35/70/36 36/76/35 72/142/62
f 72/142/62 36/76/35 28/73/32 64/139/58
f 64/139/58 28/73/32 29/72/31 65/140/59
f 65/140/65 29/72/40 30/78/39 66/144/66
f 66/144/66 30/78/39 31/7/4 67/99/46
f 67/99/46 31/7/4 32/6/2 68/100/44
f 80/149/69 78/150/70 89/151/70 92/152/71
f 68/153/72 32/154/72 73/155/73 79/156/74
f 85/157/75 77/158/75 76/159/76 86/160/77
f 74/145/67 77/158/75 85/157/75 83/146/67
f 75/161/78 87/162/78 86/160/77 76/159/76
f 90/163/79 82/164/80 81/165/81 91/166/82
f 80/149/69 92/152/71 91/166/82 81/165/81
f 78/55/19 80/167/83 77/168/84 74/56/19
f 80/167/83 81/169/85 76/170/86 77/168/84
f 81/169/85 82/171/87 75/172/87 76/170/86
f 82/171/87 79/156/74 73/155/73 75/172/87
f 88/173/88 84/174/88 25/175/88 61/176/88
f 63/177/89 62/178/89 89/151/70 78/150/70
f 75/161/90 73/179/91 84/180/91 87/162/90
f 79/181/92 82/164/80 90/163/79 88/182/92
f 88/173/93 90/183/94 87/184/95 84/174/93
f 90/183/94 91/185/96 86/186/96 87/184/95
f 91/185/96 92/187/97 85/188/97 86/186/96
f 92/187/97 89/189/98 83/190/98 85/188/97
f 62/191/99 26/192/99 83/190/99 89/189/99
f 32/193/100 25/194/100 84/180/91 73/179/91
f 68/195/101 79/181/101 88/182/101 61/196/101
